<svg width="400" height="172" viewBox="0 0 400 172" xmlns="http://www.w3.org/2000/svg">
    <title>
        Star_Wars_Logo
    </title>
    <g fill="#FFE81F" fill-rule="evenodd">
        <path d="M75.3 93.2l5.45 16.03c2.95 8.65 5.58 15.58 5.92 15.58h.02c.37-.33 11.04-31.32 11.04-31.32h20.7l-24.97 72.7H79.1s-15.35-44.3-15.3-44.48l-16 43.93H33.55L8.92 93.2l20.58.03s11.28 31.96 11.43 31.96l11.25-32h23.1zM1.9 88.2l2.25 6.65 24.64 72.42 1.16 3.4H51.3l1.22-3.3 11.12-30.5 3.03 8.8 7.67 22.2 1.17 3.37h21.57l1.16-3.4 24.95-72.7 2.3-6.68H94.14l-1.17 3.4c-1.87 5.43-4.35 12.6-6.47 18.66-.3-.92-.65-1.9-1-2.9l-5.44-16-1.16-3.42H48.62l-1.2 3.36-6.56 18.68c-2.17-6.1-4.7-13.2-6.6-18.67l-1.2-3.35H29.5l-20.58-.02H1.9zM393.87 92.93l-.04 19.06s-20.53-.08-30.97-.08c-3.47 0-5.83 0-5.94.03-1.8.33-2.95 4.15-2.44 5.83.26.85 2.14 3.62 4.17 6.17l7.4 9.26c5.24 6.54 5.96 7.83 6.45 11.58.78 6.1-2.1 12.68-7.44 17.03-5.36 4.36-5.13 4.4-44.9 4.4h-1.74c-24.2 0-37-.2-38.85-.63-3.3-.75-8.58-5.05-22.5-18.4-5.02-4.82-9.64-9.02-9.87-9.02L247 166.2l-22.57-.1-.14-72.32h50.36c15.18.55 25.45 15.67 23.4 25.3-.46 2.2-1.65 5.37-2.63 7.05-2.02 3.46-7.16 7.9-11.33 9.8-1.54.7-2.8 1.52-2.8 1.8 0 1.08 5.08 6.08 6.97 6.87 1.63.68 6.35.83 27.18.83h6.67c20.94 0 19.9-.15 21.5-3.6 1.14-2.42.28-3.86-7.7-12.84-10.1-10.05-9.03-14.86-9.1-18.42-.14-4.25 3.2-17.65 20.64-17.65h46.4zm-135.26 33.4c9.68 0 11.64-.14 13.7-1.04 6.94-3.02 7.3-11.94.65-15.9-1.46-.87-3.33-1-13.8-1.07l-12.14-.06c.1.1-.03 17.34-.03 17.34s3.04.74 11.64.74zM398.93 87.9H347.47c-10.1 0-16.06 3.98-19.3 7.32-5.24 5.43-6.47 12.26-6.38 15.5v.82c-.06 5.24.72 11.17 10.47 20.9 1.92 2.18 5.15 5.82 6.37 7.63-2.67.32-9.42.32-16.52.32h-6.67c-12.52 0-23.07-.04-25.24-.47-.3-.2-.7-.54-1.18-.94 4.32-2.67 8.7-6.8 10.76-10.33 1.25-2.15 2.62-5.82 3.2-8.54 1.3-6.05-.83-13.35-5.66-19.54-5.63-7.22-13.83-11.54-22.48-11.85h-55.58v5.04l.15 72.3.02 5 5 .02 22.58.1 5.02.03.03-5.03.1-16.8 1.43 1.37c15.23 14.6 20.35 18.65 24.88 19.68 1.24.28 3.3.74 39.95.75h1.76c19.84 0 29.8 0 35.72-.58 6.8-.65 8.97-2.2 12.24-4.86l.1-.1c6.73-5.46 10.28-13.72 9.26-21.57-.65-5.1-2-7.22-7.5-14.06l-1.63-2.04c-1.9-2.4-4.22-5.28-5.77-7.22-1.24-1.55-2.23-2.94-2.82-3.85h3.1c10.3 0 30.74.07 30.95.07l5.04.02.02-5.04.04-19.06.02-5.04zm-146.88 33.22c0-1.27 0-2.7.02-4.12v-3.67l7.05.03c4.05.02 10.14.06 11.32.4 1.52.9 2.36 2.33 2.27 3.8-.06.8-.44 2.26-2.4 3.12-1.1.48-2.87.63-11.7.63-2.8 0-4.95-.07-6.56-.18zM178.56 92.63l25.34 72.9-20.65.1-3.43-10.95-36.92-.3-3.25 10.97-20.44-.2 25.03-72.5 34.33-.02zm-16.6 10.7c-.06.2-3.24 8.94-6.43 17.67-3.22 8.8-6.46 17.6-6.5 17.68.1-.03 11.52-.05 18.85-.05h6v.02c-.12-.34-11.9-34.9-11.93-35.33zm20.18-15.73h-3.6l-34.32.03h-3.58l-1.17 3.4-25.02 72.47-2.28 6.6 6.98.07 20.44.2 3.8.05 1.07-3.63 2.18-7.35 29.47.24 2.33 7.44 1.1 3.54h3.73l20.64-.1 7.04-.04-2.3-6.65-25.35-72.92-1.16-3.38zm-25.87 46l3.98-10.87 1.5-4.12 1.37 4.03 3.72 10.96h-10.57zM187.1 5.62V23.6h-36.03v55.02H129.6V23.56l-42.05.12c-5.07 0-5.75 4.04-5.75 5.58 0 1.9 1.24 3.8 8.04 12.42 4.42 5.6 8.47 11.18 9 12.4 2.93 6.72-.85 17.18-7.72 21.43-4.9 3.04-4.06 3.12-40.45 3.12H5.6v-20.2h61.57L69 57.13c1.22-.85 1.93-2.03 2.2-3.64.38-2.3.18-2.6-7.42-11.18-9-10.13-9.94-11.97-9.47-18.44.54-7.38 7.1-18.1 18.6-18.1l114.2-.16zm5.03-5.04h-5.04L72.9.75c-6.57 0-12.68 2.84-17.2 8-3.65 4.2-6.05 9.7-6.4 14.77-.62 8.5 1.33 11.57 10.7 22.14 2.74 3.07 5.33 5.98 6.2 7.22l-.04.1-.05.04-.5.36H.57v30.28h50.1c17.94 0 26.8-.02 32-.4 5.98-.44 7.88-1.46 10.74-3.24l.36-.2c8.97-5.55 13.6-18.77 9.7-27.73-1.2-2.74-8.8-12.4-9.67-13.5-2.4-3.03-6.34-8.02-6.96-9.47.02-.12.04-.24.08-.33.1-.03.3-.06.63-.06l37-.1v55.05h31.56V28.64h36.03V.58zM245.63 6.2l25.27 73.1-20.6-.12-3.36-10.95-36.75-.16-3.3 10.54h-20.98l25-72.4h34.7zM216.2 52.5l25.02-.03c.1 0-12.17-35.97-12.25-36-.1 0-13.07 36.03-12.78 36.03zm33-51.33h-41.86l-1.17 3.4-25 72.4-2.3 6.68H210.62l1.1-3.54 2.17-6.98 29.32.13 2.26 7.4 1.08 3.54h3.7l20.6.13 7.12.03-2.32-6.7-25.27-73.1-1.2-3.4zm-26.02 46.3c1.55-4.43 3.7-10.48 5.67-15.93l5.4 15.9-11.07.02zM316.6 6.2c16.3 0 27.62.23 29.8.6 5.03.88 9.57 3.57 12.98 7.7 3.57 4.3 4.38 6.37 4.85 12.28.67 8.35-3.3 15.55-11.13 20.22-2.28 1.37-4.63 2.7-5.22 2.96-.9.4-.77.8.83 2.7 1.05 1.2 2.85 2.93 4 3.83l2.12 1.63 39.05.56.38 19.9H370.3c-18.5 0-24.43-.16-26.17-.74-2.6-.88-8.84-6.18-21.55-18.26l-9.07-8.63.1 27.64h-23.3V6.2h26.3zm-3.43 32.56h12.37c12.04 0 12.4-.04 14.13-1.33 3.07-2.3 4.16-4.67 3.83-8.3-.33-3.77-1.78-5.72-5.4-7.3-2.05-.9-4.02-1.03-13.67-1.03h-11.26v17.96zm3.43-37.6h-31.32V83.66h33.39l-.02-5.05-.05-15.86.5.5c15.73 14.95 20.36 18.35 23.42 19.38 2.35.8 6.28 1.03 27.8 1.03h29.06l-.1-5.13-.38-19.93-.1-4.87-4.86-.07-37.36-.54-.78-.6-.88-.75c.28-.16.54-.3.76-.45 9.44-5.63 14.38-14.72 13.57-24.94-.54-6.9-1.78-10-6-15.1-4.13-5-9.8-8.35-16-9.43-3.43-.6-20.67-.68-30.65-.68zm1.6 24.67h6.23c8.82 0 10.57.14 11.65.62 2.04.88 2.25 1.3 2.4 3.1.17 1.8-.05 2.52-1.83 3.86l-.14.1c-1.16.23-5.5.23-10.96.23h-7.34v-7.9z"/>
    </g>
</svg>
