<svg xmlns="http://www.w3.org/2000/svg" viewBox="0 0 612 612">
    <g fill="#d9d9d9">
        <path d="M45.8 171.76h42.85c4.97 0 9-4.02 9-9s-4.03-8.98-9-8.98h-27.2c3.57-5.7 7.35-11.33 11.32-16.8h140.9c4.96 0 9-4.03 9-9 0-4.96-4.04-9-9-9H68.24c-2.83 0-5.5 1.34-7.2 3.6-8.58 11.45-16.36 23.5-23.14 35.87-1.53 2.78-1.47 6.17.15 8.9 1.62 2.74 4.56 4.4 7.74 4.4zM17.56 244h129.96c4.97 0 9-4.02 9-9 0-4.95-4.03-8.98-9-8.98H29.25c1.63-5.64 3.44-11.25 5.43-16.8h53.97c4.97 0 9-4.02 9-9 0-4.96-4.03-8.98-9-8.98H28.42c-3.72 0-7.06 2.3-8.4 5.77-4.5 11.73-8.27 23.8-11.2 35.9-.65 2.67-.04 5.5 1.67 7.67 1.7 2.17 4.3 3.44 7.06 3.44zM170.94 411.6c0-4.95-4.03-8.98-9-8.98H34.6c-1.96-5.52-3.76-11.13-5.4-16.8h245.12c4.97 0 9-4.03 9-9 0-4.96-4.03-9-9-9H17.52c-2.75 0-5.36 1.28-7.06 3.45-1.7 2.17-2.32 5-1.67 7.68 2.95 12.2 6.7 24.28 11.14 35.87 1.33 3.5 4.67 5.78 8.4 5.78h133.6c4.97 0 9-4.02 9-9zM277.96 483.86c0-4.97-4.03-9-9-9H72.67c-3.98-5.48-7.75-11.1-11.3-16.8h27.3c4.96 0 9-4.02 9-9s-4.04-8.98-9-8.98H45.67c-3.18 0-6.12 1.67-7.74 4.4-1.62 2.74-1.68 6.13-.15 8.92 6.74 12.3 14.5 24.36 23.1 35.84 1.7 2.27 4.36 3.6 7.2 3.6h200.87c4.96 0 9-4.02 9-8.98z"/>
        <path d="M306 0C227.3 0 152.5 29.83 95.4 84c-2.66 2.53-3.52 6.44-2.15 9.86 1.36 3.42 4.67 5.66 8.35 5.66h80.7c4.97 0 9-4.03 9-9s-4.03-9-9-9h-56.77C176.58 40.4 239.83 18 306 18c155.8 0 283.1 124.35 287.86 279H18.16c.15-5.2.43-10.38.87-15.53h262.42c4.97 0 9-4.03 9-9s-4.03-9-9-9H10.9c-4.58 0-8.42 3.44-8.94 7.98C.66 282.83 0 294.45 0 306c0 11.4.65 22.98 1.93 34.37.5 4.55 4.36 8 8.94 8h195.5c4.98 0 9-4.04 9-9s-4.02-9-9-9H19.03c-.43-5.12-.7-10.25-.87-15.37h575.7c-.15 5.16-.45 10.28-.88 15.37H482.13c-4.96 0-9 4.03-9 9s4.04 9 9 9H590.9c-.98 6.56-2.2 13.05-3.6 19.46h-50.32c-4.96 0-9 4.03-9 9 0 4.96 4.04 9 9 9h45.77c-5.48 18.95-12.86 37.1-21.92 54.25H416.57c-4.96 0-9 4.02-9 9s4.04 8.98 9 8.98h133.9C499.58 539.62 409.03 594 306 594c-66.3 0-129.6-22.45-180.67-63.7h49.16c4.96 0 8.98-4.02 8.98-9 0-4.95-4.02-8.98-9-8.98h-73.04c-3.68 0-7 2.24-8.35 5.66-1.38 3.4-.53 7.32 2.14 9.85C152.34 582.1 227.18 612 306 612c168.73 0 306-137.27 306-306S474.73 0 306 0z"/>
        <path d="M473.95 280c6.47 0 12.82-1.05 18.88-3.13 37.25-12.8 54.36-61.62 38.13-108.82-13.26-38.56-45.38-65.5-78.1-65.5-6.48 0-12.83 1.06-18.88 3.15-37.26 12.8-54.36 61.62-38.14 108.8 13.26 38.57 45.38 65.5 78.1 65.5zm-34.12-157.3c4.17-1.43 8.55-2.15 13.03-2.15 25.17 0 50.3 21.94 61.1 53.35 13 37.82.9 76.38-26.98 85.96-4.17 1.44-8.55 2.16-13.03 2.16-25.17 0-50.3-21.94-61.1-53.35-13-37.82-.9-76.38 26.98-85.96zm38.3 63.52c3.65 10.63 0 21.5-8.13 24.3-8.15 2.8-17.7-3.54-21.36-14.16-3.65-10.63 0-21.5 8.13-24.3 8.14-2.8 17.7 3.54 21.35 14.16z"/>
    </g>
</svg>
